<svg xmlns="http://www.w3.org/2000/svg" version="1.1" xmlns:xlink="http://www.w3.org/1999/xlink" xmlns:svgjs="http://svgjs.dev/svgjs" width="1500" height="1500" viewBox="0 0 1500 1500"><rect width="1500" height="1500" fill="#ffffff"></rect><g transform="matrix(0.6666666666666666,0,0,0.6666666666666666,249.39393939393938,548.1198462258251)"><svg viewBox="0 0 396 160" data-background-color="#0a1627" preserveAspectRatio="xMidYMid meet" height="606" width="1500" xmlns="http://www.w3.org/2000/svg" xmlns:xlink="http://www.w3.org/1999/xlink"><g id="tight-bounds" transform="matrix(1,0,0,1,0.2400000000000091,-0.04746385181191215)"><svg viewBox="0 0 395.52 160.09492770362382" height="160.09492770362382" width="395.52"><g><svg viewBox="0 0 395.52 160.09492770362382" height="160.09492770362382" width="395.52"><g><svg viewBox="0 0 688.5866250282745 278.7197258080095" height="160.09492770362382" width="395.52"><g><svg viewBox="0 0 395.52 278.7197258080095" height="278.7197258080095" width="395.52"><g id="textblocktransform"><svg viewBox="0 0 395.52 278.7197258080095" height="278.7197258080095" width="395.52" id="textblock"><g><svg viewBox="0 0 395.52 206.01528756957327" height="206.01528756957327" width="395.52"><g transform="matrix(1,0,0,1,0,0)"><svg width="395.52" viewBox="4.4 -55.4 107.78999999999999 56.15" height="206.01528756957327" data-palette-color="#fe0039"><g class="wordmark-text-0" data-fill-palette-color="primary" id="text-0"><path d="M41.65-40.25Q42.85-40.25 44-39.58 45.15-38.9 45.5-38.4L45.5-38.4Q41.35-38.4 38.83-34.43 36.3-30.45 34.8-23.93 33.3-17.4 31.15-4.6L31.15-4.6 30.35 0.1Q29.4 0.4 28.15 0.4L28.15 0.4 25.85-4.7Q21.4-14.55 19.03-19.63 16.65-24.7 14.1-29.6L14.1-29.6 12.8-24.65Q10.55-16.25 9.45-10.73 8.35-5.2 8.35 0.75L8.35 0.75 8.1 0.75Q6.75 0.75 6.1 0.1 5.45-0.55 5.45-2.4L5.45-2.4Q5.45-4.55 6.23-7.98 7-11.4 8.65-17.5L8.65-17.5Q10.05-22.8 10.73-25.7 11.4-28.6 11.4-30.25L11.4-30.25Q11.4-31.2 11-31.58 10.6-31.95 9.4-31.95L9.4-31.95Q8.95-31.95 7.55-31.85L7.55-31.85 5.8-31.8Q5.15-31.8 4.78-32.02 4.4-32.25 4.4-33L4.4-33Q4.4-33.5 4.65-34.35L4.65-34.35Q6-33.85 8.6-33.85L8.6-33.85Q10.35-33.85 11.38-34.05 12.4-34.25 13.75-34.7L13.75-34.7Q14.25-34.7 14.65-33.9L14.65-33.9Q18-27.2 26.2-9.85L26.2-9.85 28.8-4.35Q31.25-20.85 34.27-30.55 37.3-40.25 41.65-40.25L41.65-40.25ZM47.4 0.35Q45.65 0.35 44.27-0.83 42.9-2 42.9-4.3L42.9-4.3Q43.65-6.7 45.5-14.95L45.5-14.95Q46.4-19 46.6-19.8L46.6-19.8Q47.25-20.9 48.4-20.9L48.4-20.9Q49.15-20.9 49.15-20.4L49.15-20.4Q48.8-19.15 48.17-16.43 47.55-13.7 47.2-12.15L47.2-12.15Q45.85-5.95 45.35-4.2L45.35-4.2Q45.35-3.05 46.02-2.43 46.7-1.8 47.8-1.8L47.8-1.8Q50.3-1.8 52.82-3.58 55.35-5.35 57.27-7.7 59.2-10.05 60.15-11.75L60.15-11.75Q60.45-11.65 60.55-11.43 60.65-11.2 60.65-10.65L60.65-10.65Q60.65-9.9 60.15-9.1L60.15-9.1Q57.45-4.85 54.1-2.25 50.75 0.35 47.4 0.35L47.4 0.35ZM49.7-27.15Q49-27.15 48.6-27.63 48.2-28.1 48.2-28.85L48.2-28.85Q48.2-29.85 48.85-30.68 49.5-31.5 50.5-31.5L50.5-31.5Q51.3-31.5 51.67-31 52.05-30.5 52.05-29.8L52.05-29.8Q52.05-28.8 51.37-27.98 50.7-27.15 49.7-27.15L49.7-27.15ZM86-55.4Q89.9-55.4 92.59-53.03 95.3-50.65 95.3-45.85L95.3-45.85Q95.3-45.6 95.09-45.4L95.09-45.4Q93.59-48.9 91.12-50.4 88.65-51.9 85.2-51.9L85.2-51.9Q81.8-51.9 78.27-48.85 74.75-45.8 71.4-40.13 68.05-34.45 65.15-26.7L65.15-26.7Q63.7-22.85 62.6-18.28 61.5-13.7 59.85-6L59.85-6 59.4-3.95Q63-8.85 68.34-15.1 73.7-21.35 74.5-21.35L74.5-21.35Q76.15-21.35 77.15-20.35L77.15-20.35Q73.7-17.75 68.7-12.15L68.7-12.15Q69.55-8.85 70.37-6.7 71.2-4.55 72.55-3.03 73.9-1.5 75.9-1.5L75.9-1.5Q77.2-1.5 79.27-3.3 81.34-5.1 83.15-8 84.95-10.9 85.55-14.05L85.55-14.05Q86-14.05 86.3-13.48 86.59-12.9 86.59-11.95L86.59-11.95Q86.59-10.3 84.75-7.23 82.9-4.15 80.27-1.78 77.65 0.6 75.25 0.6L75.25 0.6Q72.2 0.6 70.37-1.98 68.55-4.55 66.75-9.9L66.75-9.9Q62.25-4.65 59.35-0.3L59.35-0.3Q58.7 0.7 58.45 0.7L58.45 0.7Q58.05 0.7 57.37 0.08 56.7-0.55 56.65-1L56.65-1Q56.6-2 57.65-7.03 58.7-12.05 60.22-17.9 61.75-23.75 63-27.3L63-27.3Q67.8-40.8 73.47-48.1 79.15-55.4 86-55.4L86-55.4ZM111.54-11.55Q112.19-11.55 112.19-10.25L112.19-10.25Q112.19-7.95 110.17-5.4 108.14-2.85 105.27-1.13 102.39 0.6 99.99 0.6L99.99 0.6Q98.04 0.6 96.99-0.6 95.94-1.8 95.74-3.7L95.74-3.7Q94.49-1.9 92.59-0.75 90.69 0.4 89.19 0.4L89.19 0.4Q87.89 0.4 86.62-0.48 85.34-1.35 84.54-2.63 83.74-3.9 83.69-5.05L83.69-5.05 86.14-15.15Q86.44-16.35 87.67-17.73 88.89-19.1 90.64-20 92.39-20.9 94.19-20.9L94.19-20.9Q96.49-20.9 98.24-19.35L98.24-19.35Q98.69-20.55 98.92-20.85 99.14-21.15 99.59-21.2L99.59-21.2 102.04-21.45 102.19-21.35Q101.19-20.55 100.74-18.85L100.74-18.85Q99.19-13.05 98.62-10.3 98.04-7.55 98.04-5.45L98.04-5.45Q98.04-3.35 98.59-2.38 99.14-1.4 100.44-1.4L100.44-1.4Q102.04-1.4 104.27-2.7 106.49-4 108.49-6.33 110.49-8.65 111.54-11.55L111.54-11.55ZM89.39-1.95Q90.24-1.95 91.47-2.55 92.69-3.15 93.77-4.28 94.84-5.4 95.24-6.85L95.24-6.85 96.19-10.95Q96.39-11.95 96.89-14.18 97.39-16.4 97.69-17.6L97.69-17.6Q96.29-19 94.29-19L94.29-19Q92.74-19 91.49-18.18 90.24-17.35 89.44-16.18 88.64-15 88.44-14.1L88.44-14.1 86.44-5.2Q86.54-3.95 87.44-2.95 88.34-1.95 89.39-1.95L89.39-1.95Z" fill="#000000" data-fill-palette-color="primary"></path></g></svg></g></svg></g><g transform="matrix(1,0,0,1,19.77600000000001,254.65055259784785)"><svg viewBox="0 0 375.74399999999997 24.06917321016166" height="24.06917321016166" width="375.74399999999997"><g transform="matrix(1,0,0,1,0,0)"><svg width="375.74399999999997" viewBox="1.3 -39.8 822.62 52.699999999999996" height="24.06917321016166" data-palette-color="#ceff1a"><path d="M29.4-26Q28.85-22.9 26.83-20.88 24.8-18.85 21.9-17.95L21.9-17.95Q24.35-17.55 25.9-15.58 27.45-13.6 27.45-10.9L27.45-10.9Q27.45-10.1 27.3-9.35L27.3-9.35Q26.85-6.7 25.13-4.58 23.4-2.45 20.6-1.23 17.8 0 14.3 0L14.3 0 1.3 0 7.5-34.85 20-34.85Q24.7-34.85 27.13-32.85 29.55-30.85 29.55-27.65L29.55-27.65Q29.55-26.85 29.4-26L29.4-26ZM24.7-25.45Q24.8-25.9 24.8-26.7L24.8-26.7Q24.8-28.85 23.3-30.05 21.8-31.25 18.95-31.25L18.95-31.25 11.4-31.25 9.35-19.7 17-19.7Q20.15-19.7 22.2-21.23 24.25-22.75 24.7-25.45L24.7-25.45ZM22.8-9.8Q22.95-10.5 22.95-11.1L22.95-11.1Q22.95-13.4 21.25-14.75 19.55-16.1 16.6-16.1L16.6-16.1 8.7-16.1 6.5-3.6 14.55-3.6Q17.9-3.6 20.1-5.25 22.3-6.9 22.8-9.8L22.8-9.8ZM48.7-27.85Q52.15-27.85 54.67-26.53 57.2-25.2 58.52-22.83 59.85-20.45 59.85-17.4L59.85-17.4Q59.85-16.35 59.6-14.85L59.6-14.85Q59.4-13.55 58.95-12.15L58.95-12.15 37.05-12.15Q36.95-11.15 36.95-10.7L36.95-10.7Q36.95-7.25 39.02-5.33 41.1-3.4 44.45-3.4L44.45-3.4Q47.4-3.4 49.62-4.78 51.85-6.15 53-8.45L53-8.45 57.9-8.45Q56.1-4.5 52.37-2.02 48.65 0.45 43.75 0.45L43.75 0.45Q38.6 0.45 35.47-2.53 32.35-5.5 32.35-10.65L32.35-10.65Q32.35-12.1 32.65-13.75L32.65-13.75Q33.4-18 35.7-21.2 38-24.4 41.37-26.13 44.75-27.85 48.7-27.85L48.7-27.85ZM55-15.45Q55.15-16.45 55.15-17.3L55.15-17.3Q55.15-20.5 53.12-22.25 51.1-24 47.85-24L47.85-24Q44.35-24 41.5-21.73 38.65-19.45 37.65-15.45L37.65-15.45 55-15.45ZM79.44-27.4L84.49-27.4 89.14-5.3 101.59-27.4 106.29-27.4 82.69 12.9 77.94 12.9 85.69-0.3 79.44-27.4ZM118.04 0.45Q114.59 0.45 111.97-0.98 109.34-2.4 107.89-4.98 106.44-7.55 106.44-10.95L106.44-10.95Q106.44-15.6 108.59-19.48 110.74-23.35 114.52-25.6 118.29-27.85 122.94-27.85L122.94-27.85Q126.39-27.85 129.06-26.43 131.74-25 133.22-22.43 134.69-19.85 134.69-16.4L134.69-16.4Q134.69-11.75 132.49-7.9 130.29-4.05 126.49-1.8 122.69 0.45 118.04 0.45L118.04 0.45ZM118.59-3.4Q121.84-3.4 124.44-5.18 127.04-6.95 128.52-9.88 129.99-12.8 129.99-16.15L129.99-16.15Q129.99-19.95 127.79-21.98 125.59-24 122.29-24L122.29-24Q119.04-24 116.49-22.23 113.94-20.45 112.54-17.5 111.14-14.55 111.14-11.15L111.14-11.15Q111.14-7.45 113.24-5.43 115.34-3.4 118.59-3.4L118.59-3.4ZM162.59-27.4L167.14-27.4 162.29 0 157.74 0 158.44-4Q156.79-1.9 154.24-0.75 151.69 0.4 148.94 0.4L148.94 0.4Q144.64 0.4 142.06-1.93 139.49-4.25 139.49-8.6L139.49-8.6Q139.49-9.7 139.74-11.35L139.74-11.35 142.59-27.4 147.09-27.4 144.39-11.95Q144.19-10.9 144.19-9.75L144.19-9.75Q144.19-6.7 145.86-5.13 147.54-3.55 150.54-3.55L150.54-3.55Q154.14-3.55 156.66-5.8 159.19-8.05 159.89-12.35L159.89-12.35 159.89-12.2 162.59-27.4ZM178.49-22.2Q180.13-24.9 182.63-26.4 185.13-27.9 188.34-27.9L188.34-27.9 187.49-23.2 186.28-23.2Q182.74-23.2 180.36-21.3 177.99-19.4 177.19-14.9L177.19-14.9 174.53 0 169.99 0 174.84-27.4 179.38-27.4 178.49-22.2ZM213.18 0.45Q208.88 0.45 206.13-1.6 203.38-3.65 203.38-7.1L203.38-7.1Q203.38-7.75 203.43-8.05L203.43-8.05 207.88-8.05Q207.68-5.9 209.16-4.55 210.63-3.2 213.43-3.2L213.43-3.2Q216.23-3.2 217.96-4.28 219.68-5.35 219.68-7.3L219.68-7.3Q219.68-8.95 218.28-9.9 216.88-10.85 213.98-11.95L213.98-11.95Q211.43-12.9 209.78-13.75 208.13-14.6 206.98-16.13 205.83-17.65 205.83-20L205.83-20Q205.83-22.3 207.16-24.1 208.48-25.9 210.86-26.88 213.23-27.85 216.28-27.85L216.28-27.85Q220.48-27.85 223.18-25.75 225.88-23.65 225.88-20.25L225.88-20.25Q225.88-19.6 225.83-19.25L225.83-19.25 221.48-19.25 221.53-19.85Q221.53-21.85 220.01-23.03 218.48-24.2 215.98-24.2L215.98-24.2Q213.53-24.2 211.96-23.1 210.38-22 210.38-20.15L210.38-20.15Q210.38-18.4 211.83-17.4 213.28-16.4 216.33-15.2L216.33-15.2Q218.88-14.2 220.43-13.38 221.98-12.55 223.08-11.1 224.18-9.65 224.18-7.45L224.18-7.45Q224.18-5.05 222.76-3.25 221.33-1.45 218.83-0.5 216.33 0.45 213.18 0.45L213.18 0.45ZM246.38-27.85Q249.83-27.85 252.35-26.53 254.88-25.2 256.2-22.83 257.53-20.45 257.53-17.4L257.53-17.4Q257.53-16.35 257.28-14.85L257.28-14.85Q257.08-13.55 256.63-12.15L256.63-12.15 234.73-12.15Q234.63-11.15 234.63-10.7L234.63-10.7Q234.63-7.25 236.7-5.33 238.78-3.4 242.13-3.4L242.13-3.4Q245.08-3.4 247.3-4.78 249.53-6.15 250.68-8.45L250.68-8.45 255.58-8.45Q253.78-4.5 250.05-2.02 246.33 0.45 241.43 0.45L241.43 0.45Q236.28 0.45 233.15-2.53 230.03-5.5 230.03-10.65L230.03-10.65Q230.03-12.1 230.33-13.75L230.33-13.75Q231.08-18 233.38-21.2 235.68-24.4 239.05-26.13 242.43-27.85 246.38-27.85L246.38-27.85ZM252.68-15.45Q252.83-16.45 252.83-17.3L252.83-17.3Q252.83-20.5 250.8-22.25 248.78-24 245.53-24L245.53-24Q242.03-24 239.18-21.73 236.33-19.45 235.33-15.45L235.33-15.45 252.68-15.45ZM267.18-37L271.72-37 265.18 0 260.63 0 267.18-37ZM289.87-34.4Q286.82-34.4 285.4-33.23 283.97-32.05 283.52-29.35L283.52-29.35 283.17-27.4 288.92-27.4 288.27-23.65 282.52-23.65 278.32 0 273.77 0 277.92-23.65 274.42-23.65 275.07-27.4 278.57-27.4 278.92-29.35Q279.77-33.95 282.52-36.08 285.27-38.2 290.52-38.2L290.52-38.2 289.87-34.4ZM304.97-13.8Q305.72-18 307.99-21.18 310.27-24.35 313.57-26.1 316.87-27.85 320.57-27.85L320.57-27.85Q323.72-27.85 326.22-26.38 328.72-24.9 329.77-22.5L329.77-22.5 332.32-37 336.92-37 330.37 0 325.77 0 326.72-5.15Q324.97-2.7 322.02-1.13 319.07 0.45 315.52 0.45L315.52 0.45Q312.32 0.45 309.87-0.93 307.42-2.3 306.04-4.85 304.67-7.4 304.67-10.75L304.67-10.75Q304.67-12.25 304.97-13.8L304.97-13.8ZM328.22-13.75Q328.42-14.8 328.42-16L328.42-16Q328.42-19.65 326.24-21.78 324.07-23.9 320.72-23.9L320.72-23.9Q318.17-23.9 315.84-22.7 313.52-21.5 311.87-19.2 310.22-16.9 309.67-13.8L309.67-13.8Q309.47-12.75 309.47-11.5L309.47-11.5Q309.47-7.8 311.62-5.68 313.77-3.55 317.12-3.55L317.12-3.55Q319.67-3.55 321.99-4.78 324.32-6 325.99-8.33 327.67-10.65 328.22-13.75L328.22-13.75ZM350.12 0.45Q346.66 0.45 344.04-0.98 341.41-2.4 339.96-4.98 338.51-7.55 338.51-10.95L338.51-10.95Q338.51-15.6 340.66-19.48 342.81-23.35 346.59-25.6 350.37-27.85 355.01-27.85L355.01-27.85Q358.46-27.85 361.14-26.43 363.81-25 365.29-22.43 366.76-19.85 366.76-16.4L366.76-16.4Q366.76-11.75 364.56-7.9 362.37-4.05 358.56-1.8 354.76 0.45 350.12 0.45L350.12 0.45ZM350.66-3.4Q353.91-3.4 356.51-5.18 359.12-6.95 360.59-9.88 362.06-12.8 362.06-16.15L362.06-16.15Q362.06-19.95 359.87-21.98 357.66-24 354.37-24L354.37-24Q351.12-24 348.56-22.23 346.01-20.45 344.62-17.5 343.21-14.55 343.21-11.15L343.21-11.15Q343.21-7.45 345.31-5.43 347.41-3.4 350.66-3.4L350.66-3.4ZM388.36-27.9Q392.61-27.9 395.16-25.63 397.71-23.35 397.71-19L397.71-19Q397.71-17.4 397.46-16.15L397.46-16.15 394.61 0 390.11 0 392.86-15.5Q393.06-16.55 393.06-17.7L393.06-17.7Q393.06-20.75 391.39-22.35 389.71-23.95 386.71-23.95L386.71-23.95Q383.11-23.95 380.59-21.7 378.06-19.45 377.31-15.15L377.31-15.15 377.31-15.25 374.61 0 370.06 0 374.91-27.4 379.46-27.4 378.76-23.45Q380.46-25.6 383.01-26.75 385.56-27.9 388.36-27.9L388.36-27.9ZM407.01-39.8L411.41-39.8 409.06-29.85 405.91-29.85 407.01-39.8ZM419.76-23.65L416.91-7.5Q416.76-6.75 416.76-6.2L416.76-6.2Q416.76-4.95 417.53-4.4 418.31-3.85 420.06-3.85L420.06-3.85 423.41-3.85 422.71 0 418.61 0Q415.36 0 413.73-1.25 412.11-2.5 412.11-5.35L412.11-5.35Q412.11-6.45 412.31-7.5L412.31-7.5 415.16-23.65 411.66-23.65 412.31-27.4 415.86-27.4 417.06-34.3 421.66-34.3 420.46-27.4 427.56-27.4 426.91-23.65 419.76-23.65ZM451.6-22.3Q453.45-24.75 456.4-26.3 459.35-27.85 462.8-27.85L462.8-27.85Q467.7-27.85 470.68-24.9 473.65-21.95 473.65-16.9L473.65-16.9Q473.65-15.45 473.35-13.8L473.35-13.8Q472.6-9.65 470.33-6.4 468.05-3.15 464.78-1.35 461.5 0.45 457.85 0.45L457.85 0.45Q454.3 0.45 451.9-1.1 449.5-2.65 448.55-5.05L448.55-5.05 447.65 0 443.1 0 449.65-37 454.2-37 451.6-22.3ZM468.7-13.8Q468.9-14.85 468.9-16.1L468.9-16.1Q468.9-19.75 466.75-21.83 464.6-23.9 461.2-23.9L461.2-23.9Q458.7-23.9 456.35-22.68 454-21.45 452.33-19.13 450.65-16.8 450.1-13.75L450.1-13.75Q449.9-12.7 449.9-11.45L449.9-11.45Q449.9-7.8 452.08-5.68 454.25-3.55 457.6-3.55L457.6-3.55Q460.15-3.55 462.48-4.78 464.8-6 466.48-8.33 468.15-10.65 468.7-13.8L468.7-13.8ZM493.65-27.85Q497.1-27.85 499.62-26.53 502.15-25.2 503.47-22.83 504.8-20.45 504.8-17.4L504.8-17.4Q504.8-16.35 504.55-14.85L504.55-14.85Q504.35-13.55 503.9-12.15L503.9-12.15 482-12.15Q481.9-11.15 481.9-10.7L481.9-10.7Q481.9-7.25 483.97-5.33 486.05-3.4 489.4-3.4L489.4-3.4Q492.35-3.4 494.57-4.78 496.8-6.15 497.95-8.45L497.95-8.45 502.85-8.45Q501.05-4.5 497.32-2.02 493.6 0.45 488.7 0.45L488.7 0.45Q483.55 0.45 480.42-2.53 477.3-5.5 477.3-10.65L477.3-10.65Q477.3-12.1 477.6-13.75L477.6-13.75Q478.35-18 480.65-21.2 482.95-24.4 486.32-26.13 489.7-27.85 493.65-27.85L493.65-27.85ZM499.95-15.45Q500.1-16.45 500.1-17.3L500.1-17.3Q500.1-20.5 498.07-22.25 496.05-24 492.8-24L492.8-24Q489.3-24 486.45-21.73 483.6-19.45 482.6-15.45L482.6-15.45 499.95-15.45ZM523.49-13.8Q524.24-18 526.52-21.18 528.79-24.35 532.07-26.1 535.34-27.85 539.04-27.85L539.04-27.85Q542.64-27.85 544.99-26.3 547.34-24.75 548.24-22.4L548.24-22.4 549.14-27.4 553.74-27.4 548.89 0 544.29 0 545.24-5.1Q543.44-2.7 540.49-1.13 537.54 0.45 533.99 0.45L533.99 0.45Q530.79 0.45 528.34-0.93 525.89-2.3 524.54-4.85 523.19-7.4 523.19-10.75L523.19-10.75Q523.19-12.25 523.49-13.8L523.49-13.8ZM546.74-13.75Q546.94-14.8 546.94-16L546.94-16Q546.94-19.65 544.77-21.78 542.59-23.9 539.24-23.9L539.24-23.9Q536.69-23.9 534.37-22.7 532.04-21.5 530.39-19.2 528.74-16.9 528.19-13.8L528.19-13.8Q527.99-12.75 527.99-11.5L527.99-11.5Q527.99-7.8 530.14-5.68 532.29-3.55 535.64-3.55L535.64-3.55Q538.19-3.55 540.52-4.78 542.84-6 544.52-8.33 546.19-10.65 546.74-13.75L546.74-13.75ZM574.89-27.9Q579.14-27.9 581.69-25.63 584.24-23.35 584.24-19L584.24-19Q584.24-17.4 583.99-16.15L583.99-16.15 581.14 0 576.64 0 579.39-15.5Q579.59-16.55 579.59-17.7L579.59-17.7Q579.59-20.75 577.92-22.35 576.24-23.95 573.24-23.95L573.24-23.95Q569.64-23.95 567.12-21.7 564.59-19.45 563.84-15.15L563.84-15.15 563.84-15.25 561.14 0 556.59 0 561.44-27.4 565.99-27.4 565.29-23.45Q566.99-25.6 569.54-26.75 572.09-27.9 574.89-27.9L574.89-27.9ZM590.19-27.4L595.24-27.4 599.89-5.3 612.34-27.4 617.04-27.4 593.44 12.9 588.69 12.9 596.44-0.3 590.19-27.4ZM628.79 0.45Q625.34 0.45 622.71-0.98 620.09-2.4 618.64-4.98 617.19-7.55 617.19-10.95L617.19-10.95Q617.19-15.6 619.34-19.48 621.49-23.35 625.26-25.6 629.04-27.85 633.69-27.85L633.69-27.85Q637.14-27.85 639.81-26.43 642.49-25 643.96-22.43 645.44-19.85 645.44-16.4L645.44-16.4Q645.44-11.75 643.24-7.9 641.04-4.05 637.24-1.8 633.44 0.45 628.79 0.45L628.79 0.45ZM629.34-3.4Q632.59-3.4 635.19-5.18 637.79-6.95 639.26-9.88 640.74-12.8 640.74-16.15L640.74-16.15Q640.74-19.95 638.54-21.98 636.34-24 633.04-24L633.04-24Q629.79-24 627.24-22.23 624.69-20.45 623.29-17.5 621.89-14.55 621.89-11.15L621.89-11.15Q621.89-7.45 623.99-5.43 626.09-3.4 629.34-3.4L629.34-3.4ZM667.03-27.9Q671.28-27.9 673.83-25.63 676.38-23.35 676.38-19L676.38-19Q676.38-17.4 676.13-16.15L676.13-16.15 673.28 0 668.78 0 671.53-15.5Q671.73-16.55 671.73-17.7L671.73-17.7Q671.73-20.75 670.06-22.35 668.38-23.95 665.38-23.95L665.38-23.95Q661.78-23.95 659.26-21.7 656.73-19.45 655.98-15.15L655.98-15.15 655.98-15.25 653.28 0 648.73 0 653.58-27.4 658.13-27.4 657.43-23.45Q659.13-25.6 661.68-26.75 664.23-27.9 667.03-27.9L667.03-27.9ZM697.48-27.85Q700.93-27.85 703.46-26.53 705.98-25.2 707.31-22.83 708.63-20.45 708.63-17.4L708.63-17.4Q708.63-16.35 708.38-14.85L708.38-14.85Q708.18-13.55 707.73-12.15L707.73-12.15 685.83-12.15Q685.73-11.15 685.73-10.7L685.73-10.7Q685.73-7.25 687.81-5.33 689.88-3.4 693.23-3.4L693.23-3.4Q696.18-3.4 698.41-4.78 700.63-6.15 701.78-8.45L701.78-8.45 706.68-8.45Q704.88-4.5 701.16-2.02 697.43 0.45 692.53 0.45L692.53 0.45Q687.38 0.45 684.26-2.53 681.13-5.5 681.13-10.65L681.13-10.65Q681.13-12.1 681.43-13.75L681.43-13.75Q682.18-18 684.48-21.2 686.78-24.4 690.16-26.13 693.53-27.85 697.48-27.85L697.48-27.85ZM703.78-15.45Q703.93-16.45 703.93-17.3L703.93-17.3Q703.93-20.5 701.91-22.25 699.88-24 696.63-24L696.63-24Q693.13-24 690.28-21.73 687.43-19.45 686.43-15.45L686.43-15.45 703.78-15.45ZM743.38-27.85Q746.83-27.85 749.35-26.53 751.88-25.2 753.2-22.83 754.53-20.45 754.53-17.4L754.53-17.4Q754.53-16.35 754.28-14.85L754.28-14.85Q754.08-13.55 753.63-12.15L753.63-12.15 731.73-12.15Q731.63-11.15 731.63-10.7L731.63-10.7Q731.63-7.25 733.7-5.33 735.78-3.4 739.13-3.4L739.13-3.4Q742.08-3.4 744.3-4.78 746.53-6.15 747.68-8.45L747.68-8.45 752.58-8.45Q750.78-4.5 747.05-2.02 743.33 0.45 738.43 0.45L738.43 0.45Q733.28 0.45 730.15-2.53 727.03-5.5 727.03-10.65L727.03-10.65Q727.03-12.1 727.33-13.75L727.33-13.75Q728.08-18 730.38-21.2 732.68-24.4 736.05-26.13 739.43-27.85 743.38-27.85L743.38-27.85ZM749.68-15.45Q749.83-16.45 749.83-17.3L749.83-17.3Q749.83-20.5 747.8-22.25 745.78-24 742.53-24L742.53-24Q739.03-24 736.18-21.73 733.33-19.45 732.33-15.45L732.33-15.45 749.68-15.45ZM764.17-37L768.72-37 762.17 0 757.62 0 764.17-37ZM779.57 0.45Q775.27 0.45 772.52-1.6 769.77-3.65 769.77-7.1L769.77-7.1Q769.77-7.75 769.82-8.05L769.82-8.05 774.27-8.05Q774.07-5.9 775.55-4.55 777.02-3.2 779.82-3.2L779.82-3.2Q782.62-3.2 784.35-4.28 786.07-5.35 786.07-7.3L786.07-7.3Q786.07-8.95 784.67-9.9 783.27-10.85 780.37-11.95L780.37-11.95Q777.82-12.9 776.17-13.75 774.52-14.6 773.37-16.13 772.22-17.65 772.22-20L772.22-20Q772.22-22.3 773.55-24.1 774.87-25.9 777.25-26.88 779.62-27.85 782.67-27.85L782.67-27.85Q786.87-27.85 789.57-25.75 792.27-23.65 792.27-20.25L792.27-20.25Q792.27-19.6 792.22-19.25L792.22-19.25 787.87-19.25 787.92-19.85Q787.92-21.85 786.4-23.03 784.87-24.2 782.37-24.2L782.37-24.2Q779.92-24.2 778.35-23.1 776.77-22 776.77-20.15L776.77-20.15Q776.77-18.4 778.22-17.4 779.67-16.4 782.72-15.2L782.72-15.2Q785.27-14.2 786.82-13.38 788.37-12.55 789.47-11.1 790.57-9.65 790.57-7.45L790.57-7.45Q790.57-5.05 789.15-3.25 787.72-1.45 785.22-0.5 782.72 0.45 779.57 0.45L779.57 0.45ZM812.77-27.85Q816.22-27.85 818.74-26.53 821.27-25.2 822.59-22.83 823.92-20.45 823.92-17.4L823.92-17.4Q823.92-16.35 823.67-14.85L823.67-14.85Q823.47-13.55 823.02-12.15L823.02-12.15 801.12-12.15Q801.02-11.15 801.02-10.7L801.02-10.7Q801.02-7.25 803.09-5.33 805.17-3.4 808.52-3.4L808.52-3.4Q811.47-3.4 813.69-4.78 815.92-6.15 817.07-8.45L817.07-8.45 821.97-8.45Q820.17-4.5 816.44-2.02 812.72 0.45 807.82 0.45L807.82 0.45Q802.67 0.45 799.54-2.53 796.42-5.5 796.42-10.65L796.42-10.65Q796.42-12.1 796.72-13.75L796.72-13.75Q797.47-18 799.77-21.2 802.07-24.4 805.44-26.13 808.82-27.85 812.77-27.85L812.77-27.85ZM819.07-15.45Q819.22-16.45 819.22-17.3L819.22-17.3Q819.22-20.5 817.19-22.25 815.17-24 811.92-24L811.92-24Q808.42-24 805.57-21.73 802.72-19.45 801.72-15.45L801.72-15.45 819.07-15.45Z" opacity="1" transform="matrix(1,0,0,1,0,0)" fill="#000000" class="slogan-text-1" data-fill-palette-color="secondary" id="text-1"></path></svg></g></svg></g></svg></g></svg></g><g transform="matrix(1,0,0,1,444.1552650282746,15.82482873912383)"><svg viewBox="0 0 244.43135999999998 247.07006832976185" height="247.07006832976185" width="244.43135999999998"><g><svg version="1.0" xmlns="http://www.w3.org/2000/svg" xmlns:xlink="http://www.w3.org/1999/xlink" x="0" y="0" viewBox="0 0 98.932 100" enable-background="new 0 0 98.933 100" xml:space="preserve" width="244.43135999999998" height="247.07006832976185" class="icon-icon-0" data-fill-palette-color="accent" id="icon-0"><path d="M22.714 32.172l0.803-1.124c0.168-0.233 0.36-0.456 0.536-0.688l0.027 0.063 0.93-1.113c1.218-1.464 2.606-2.883 4.054-4.104l1.114-0.94-0.053-0.026c0.202-0.151 0.393-0.324 0.598-0.474l1.1-0.806-17.286-8.352 0.965 2.071L22.714 32.172z" fill="#000000" data-fill-palette-color="accent"></path><path d="M17.846 55.055c-0.042-0.267-0.06-0.542-0.096-0.812l0.076 0.025-0.128-1.449c-0.081-0.938-0.13-1.878-0.13-2.819 0-0.998 0.045-1.984 0.13-2.958l0.132-1.459-0.078 0.032c0.035-0.273 0.052-0.545 0.094-0.812l0.217-1.359-1.282 0.46L0 49.929l18.058 6.48L17.846 55.055z" fill="#000000" data-fill-palette-color="accent"></path><path d="M45.2 17.936l-0.027 0.081 1.434-0.133c0.948-0.082 1.899-0.131 2.859-0.131 0.96 0 1.912 0.049 2.86 0.131l1.433 0.133-0.028-0.081c0.269 0.037 0.542 0.054 0.808 0.098l1.339 0.219L49.465 0l-0.759 2.163-5.656 16.089 1.344-0.219C44.66 17.99 44.933 17.973 45.2 17.936z" fill="#000000" data-fill-palette-color="accent"></path><path d="M68.833 24.266h-0.007l0.263 0.223c0.54 0.426 1.031 0.906 1.541 1.366 0.936 0.838 1.823 1.735 2.657 2.676 0.437 0.492 0.885 0.971 1.29 1.49l0.337 0.411 0.006-0.012c0.162 0.211 0.337 0.412 0.493 0.63l0.795 1.118 8.27-17.568-2.057 0.995-15.312 7.372 1.1 0.801C68.424 23.923 68.624 24.101 68.833 24.266z" fill="#000000" data-fill-palette-color="accent"></path><path d="M80.867 56.479l18.065-6.486-18.065-6.475 0.218 1.354c0.04 0.267 0.061 0.542 0.096 0.812l-0.078-0.032 0.131 1.459c0.08 0.956 0.13 1.919 0.13 2.89 0 0.968-0.05 1.932-0.13 2.887l-0.131 1.456 0.078-0.029c-0.035 0.271-0.056 0.545-0.096 0.812L80.867 56.479z" fill="#000000" data-fill-palette-color="accent"></path><path d="M53.734 82.062l0.028-0.081-1.438 0.133c-0.948 0.082-1.899 0.132-2.86 0.132-0.96 0-1.911-0.05-2.859-0.132l-1.438-0.133 0.029 0.081c-0.267-0.039-0.539-0.058-0.802-0.1l-1.339-0.214 0.452 1.29L49.461 100l6.415-18.255-1.339 0.217C54.273 82.004 54.002 82.022 53.734 82.062z" fill="#000000" data-fill-palette-color="accent"></path><path d="M75.413 68.945c-0.147 0.21-0.316 0.4-0.47 0.605l-0.023-0.053-0.931 1.126c-1 1.212-2.126 2.379-3.289 3.442-0.597 0.536-1.168 1.107-1.801 1.597-0.212 0.162-0.411 0.34-0.626 0.5l-1.093 0.802 17.309 8.369-8.281-17.495L75.413 68.945z" fill="#000000" data-fill-palette-color="accent"></path><path d="M30.035 75.682l0.062-0.029-1.096-0.931c-1.431-1.211-2.792-2.588-3.991-4.033l-0.925-1.111-0.029 0.062c-0.176-0.234-0.369-0.455-0.539-0.693l-0.798-1.114-0.582 1.242-7.601 16.231 17.295-8.268-1.109-0.809C30.486 76.059 30.265 75.862 30.035 75.682z" fill="#000000" data-fill-palette-color="accent"></path><path d="M72.22 66.818c3.675-5.083 5.455-10.983 5.455-16.826 0-8.768-3.993-17.423-11.521-23.006-5.028-3.726-10.864-5.52-16.647-5.52-8.672 0-17.233 4.034-22.751 11.65-3.687 5.07-5.461 10.979-5.461 16.827 0 8.765 3.991 17.425 11.525 23.005 5.015 3.716 10.859 5.518 16.641 5.518C58.133 78.467 66.699 74.43 72.22 66.818z" fill="#000000" data-fill-palette-color="accent"></path></svg></g></svg></g></svg></g></svg></g><defs></defs></svg><rect width="395.52" height="160.09492770362382" fill="none" stroke="none" visibility="hidden"></rect></g></svg></g></svg>