  <svg
    xmlns="http://www.w3.org/2000/svg"
    fill="none"
    viewBox="0 0 3987 2574"
    width="100"
    height="80"
  >
      <path
      fill="url(#icon-logo-vertical_svg__a)"
      stroke="#9078BD"
      stroke-miterlimit="10"
      stroke-width="3"
      d="M186.5 2455.9v-192.1h33v192.1h-33Z"
    ></path>
    <path
      fill="url(#icon-logo-vertical_svg__b)"
      stroke="#9078BD"
      stroke-miterlimit="10"
      stroke-width="3"
      d="M496.9 2341.7v114.2h-32.7v-195l118.6 118.5v-115.6h32.7v196.5l-118.6-118.6Z"
    ></path>
    <path
      fill="url(#icon-logo-vertical_svg__c)"
      stroke="#9078BD"
      stroke-miterlimit="10"
      stroke-width="3"
      d="M990.7 2263.8v33h-57.8v159.1h-32.7v-159.1h-57.6v-33h148.1Z"
    ></path>
    <path
      fill="url(#icon-logo-vertical_svg__d)"
      stroke="#9078BD"
      stroke-miterlimit="10"
      stroke-width="3"
      d="M1219.3 2455.9v-192.1h121.5v33h-88.5v46.4h66.6v33h-66.6v47h88.5v32.7h-121.5Z"
    ></path>
    <path
      fill="url(#icon-logo-vertical_svg__e)"
      stroke="#9078BD"
      stroke-miterlimit="10"
      stroke-width="3"
      d="m1673.4 2455.9-64.5-84.7v84.7h-32.7l-.3-192.1h70.3c9.03-.06 18 1.46 26.5 4.5 8 2.9 15.37 7.31 21.7 13a57.383 57.383 0 0 1 14.3 18.8 52.633 52.633 0 0 1 4.65 28.46 52.632 52.632 0 0 1-11.05 26.64 56.086 56.086 0 0 1-24.5 18.1 90.812 90.812 0 0 1-12.2 3.5c-3.28.8-6.63 1.27-10 1.4l58.4 77.7h-40.6Zm-64.5-159.1v51.7h28.6c11.5 0 20.6-1.6 27.4-4.7 4.37-1.83 8.19-4.76 11.1-8.5 3-3.59 4.66-8.12 4.7-12.8 0-6.4-2.7-12.1-8.2-17-5.5-4.9-15.2-8.7-26.3-8.7h-37.3Z"
    ></path>
    <path
      fill="url(#icon-logo-vertical_svg__f)"
      stroke="#9078BD"
      stroke-miterlimit="10"
      stroke-width="3"
      d="m1980.6 2429.6-12.3 26.3h-36.2l89.1-192.1 84.6 192.1h-35.9l-11.7-26.3h-77.6Zm39.7-86.1-24.6 53.1h47.9l-23.3-53.1Z"
    ></path>
    <path
      fill="url(#icon-logo-vertical_svg__g)"
      stroke="#9078BD"
      stroke-miterlimit="10"
      stroke-width="3"
      d="M2412.1 2457.7a94.054 94.054 0 0 1-48.6-13.3 97.66 97.66 0 0 1-35.3-35.8 98.197 98.197 0 0 1-9.87-74.12 98.179 98.179 0 0 1 45.17-59.58 93.915 93.915 0 0 1 48.6-13.2 95.074 95.074 0 0 1 39.3 8.4 92.319 92.319 0 0 1 32.6 23.8l-24.3 21.9a63.455 63.455 0 0 0-21.7-15.8 62.93 62.93 0 0 0-29.44-5.51 63.066 63.066 0 0 0-28.66 8.71 65.725 65.725 0 0 0-29.84 39.68 65.717 65.717 0 0 0 6.44 49.22 66.733 66.733 0 0 0 23.5 24 61.976 61.976 0 0 0 32.1 8.9 60.82 60.82 0 0 0 27.6-6.5 66.317 66.317 0 0 0 22.4-17.8l25.7 20.5a96.195 96.195 0 0 1-33.6 26.8 94.548 94.548 0 0 1-42.1 9.7Z"
    ></path>
    <path
      fill="url(#icon-logo-vertical_svg__h)"
      stroke="#9078BD"
      stroke-miterlimit="10"
      stroke-width="3"
      d="M2853.6 2263.8v33h-57.8v159.1h-32.7v-159.1h-57.5v-33h148Z"
    ></path>
    <path
      fill="url(#icon-logo-vertical_svg__i)"
      stroke="#9078BD"
      stroke-miterlimit="10"
      stroke-width="3"
      d="M3085.5 2455.9v-192.1h33v192.1h-33Z"
    ></path>
    <path
      fill="url(#icon-logo-vertical_svg__j)"
      stroke="#9078BD"
      stroke-miterlimit="10"
      stroke-width="3"
      d="m3434.7 2379.1 51.1-115.3h35.9l-87 196.5-87-196.5h35.6l51.4 115.3Z"
    ></path>
    <path
      fill="url(#icon-logo-vertical_svg__k)"
      stroke="#9078BD"
      stroke-miterlimit="10"
      stroke-width="3"
      d="M3749.2 2455.9v-192.1h121.5v33h-88.5v46.4h66.6v33h-66.6v47h88.5v32.7h-121.5Z"
    ></path>
    <path
      fill="url(#icon-logo-vertical_svg__l)"
      d="M1858 836.6c7.6-38.2 28.7-111.7 143.9-166 44.2-20.9 219.1-87.8 264.6-102 17.3-5.5 23 2.2 20.6 9.2-26.8 80.5-149.1 151.2-196.7 172.9-68 31.1-155.2 85-215 111.3-13.2 5.8-21.8-2.9-17.4-25.4Z"
    ></path>
    <path
      fill="url(#icon-logo-vertical_svg__m)"
      d="M1844.7 1112.9c17.9 41.1-8.3 32.6-59.2-15.3-8-7.5-125.6-94.6-111.2-259.8 5.9-66.7 41-160.3 193.6-262.1 98.4-65.5 219-92.9 202.7-75.8-49.5 52-206.7 188.2-251.5 307.8-30.9 82.4-24.8 189.3 25.6 305.2Z"
    ></path>
    <path
      fill="url(#icon-logo-vertical_svg__n)"
      d="M1842.5 1123.8c1.2 2.4-15.7-4.2-27.9-13-7.2-5.2-139.7-106.7-124.7-261.7 6.7-69.2 33-162.4 219.5-279.5 75.6-47.5 175.3-84.9 130.7-46.3-36.5 31.7-219.9 199.2-241.8 263.1-18.9 55.2-23.8 193.4 44.2 337.4Z"
    ></path>
    <path
      fill="url(#icon-logo-vertical_svg__o)"
      d="M1706.2 659c-4.6 4.6-23.9-12.1-24.5-51.3-1.5-96.4 60.8-215.2 287.1-273.3 55.1-14.2 203.5-40 296-61.9 98.8-23.5 112.7-37.9 150-50.1 24-7.8 34.7 47.4-107.2 127.1-61.7 34.6-156.9 74.3-285 113.4-102.2 31.3-206.7 87.2-316.4 196.1Z"
    ></path>
    <path
      fill="url(#icon-logo-vertical_svg__p)"
      d="M1872.6 844.8c1.8-17 30.6-102.4 135.3-154.5 137.1-68.4 229.7-97.5 259.9-106.2 20.9-6-44.4 103.4-188.9 163.6-99.3 41.4-208.9 121.4-206.3 97.1Z"
    ></path>
    <path
      fill="url(#icon-logo-vertical_svg__q)"
      d="M1883.5 844c-16.6 9.2 28.6-101.6 152.5-157.9 97-44.1 178.5-76.9 228.3-93.6 21.1-7.2-56 94-177 146.8-82.1 35.9-176.1 89.6-203.8 104.7Z"
    ></path>
    <path
      fill="url(#icon-logo-vertical_svg__r)"
      d="M2057.6 223.3c7.8 38.4-48.9 79.3-93.8 88.4-44.9 9.1-86.7-9.2-94.5-47.6-7.8-38.4 27.1-79.4 72.1-88.3 56.3-11.1 108.5 9.1 116.2 47.5Z"
    ></path>
    <path
      fill="url(#icon-logo-vertical_svg__s)"
      d="M2046.1 229.4c7.7 38.3-24 65.8-68.9 74.9-44.9 9.1-86.1-.6-93.8-39-7.7-38.4 23.3-63.4 68.2-72.5 44.9-9.1 86.7-1.8 94.5 36.6Z"
    ></path>
    <path
      fill="url(#icon-logo-vertical_svg__t)"
      d="M1833.3 1104.4c1 2.4 16.7 27.7-11.8 2.9-4.2-3.6-134.2-107.8-119.2-262.7 6.7-69.3 63.9-171.2 234.7-278.6 49.5-31.1 129.8-62.9 100.7-41.3-48.3 36.1-178.8 174.4-218.7 261-24.3 53-51.4 168.8 14.3 318.7Z"
    ></path>
    <path
      fill="url(#icon-logo-vertical_svg__u)"
      d="M1717 638.6c-4.5 4.7-11.1 12.6-13 6.4-22.2-71.7 42.7-219 284-287 54.7-15.4 242.3-54.5 336.5-80.8 40.3-11.2 110-43.3 86.6-14.7-29 35.3-102.4 71.9-307 147.1-26.6 9.8-88.6 29.7-115.2 39.3-50 18.1-166.3 82.2-271.9 189.7Z"
    ></path>
    <path
      fill="url(#icon-logo-vertical_svg__v)"
      d="M1719.1 635c-4.6 4.7-9.4 5.9-9.9-.7-5.2-62.9 74.4-222.1 313.4-271.7 0 0 259.3-53.8 354.3-92.7 22.4-9.1 34.9-6.9 27.5 0-33.3 31.2-86.3 79-290.9 154.2-26.6 9.8-88.6 29.7-115.3 39.3-49.9 18-173.5 64.1-279.1 171.6Z"
    ></path>
    <path
      fill="url(#icon-logo-vertical_svg__w)"
      d="M2039.4 228.2c6.4 31.6-26.8 64-65.9 71.9-39.1 7.9-72.8-3.8-79.2-35.4-6.4-31.6 20.7-57.9 59.7-65.8 39-7.9 79-2.3 85.4 29.3Z"
    ></path>
    <path
      fill="url(#icon-logo-vertical_svg__x)"
      stroke="#9078BD"
      stroke-miterlimit="10"
      stroke-width="3"
      d="M189.4 2140.2H318v-393h269.5v-49.1H318V1424h373v-49.1H189.4v765.3Z"
    ></path>
    <path
      fill="url(#icon-logo-vertical_svg__y)"
      stroke="#9078BD"
      stroke-miterlimit="10"
      stroke-width="3"
      d="M994.6 1374.9H866v765.26h128.6V1374.9Z"
    ></path>
    <path
      fill="url(#icon-logo-vertical_svg__z)"
      stroke="#9078BD"
      stroke-miterlimit="10"
      stroke-width="3"
      d="M1957.9 1473.2c-37.73-35.8-82.23-64.03-133.5-84.7-51.27-20.67-106.63-31-166.1-31a448.438 448.438 0 0 0-214.9 53.9 411.038 411.038 0 0 0-85.3 61.8 386.39 386.39 0 0 0-65.3 80.1c-17.98 29.5-32 61.24-41.7 94.4a370.738 370.738 0 0 0-14.8 105.3c-.13 36.28 4.85 72.41 14.8 107.3 9.69 33.99 23.7 66.59 41.7 97a389.869 389.869 0 0 0 65.3 82.1 426.008 426.008 0 0 0 186.5 104.3 450.344 450.344 0 0 0 227.5 0c35.32-9.26 69.3-23.04 101.1-41a418.418 418.418 0 0 0 85-63.3 395.22 395.22 0 0 0 65-82.1 416.452 416.452 0 0 0 41.7-97 386.245 386.245 0 0 0 14.8-107.3c0-54.73-10.87-106.1-32.6-154.1a396.841 396.841 0 0 0-89.2-125.7Zm-46.5 426.6c-11.93 44.8-29.4 83.57-52.4 116.3-23 32.73-51.33 58.27-85 76.6-33.6 18.33-72.17 27.5-115.7 27.5-44.8 0-84.1-9.17-117.9-27.5-33.8-18.33-62.13-43.87-85-76.6-22.93-32.67-40.07-71.43-51.4-116.3-11.33-44.87-17.03-93.8-17.1-146.8 0-52.47 5.7-100.6 17.1-144.4 11.4-43.8 28.53-81.5 51.4-113.1 22.8-31.73 51.13-56.4 85-74s73.17-26.43 117.9-26.5c43.53 0 82.1 8.83 115.7 26.5 33.6 17.67 61.93 42.33 85 74 23.07 31.6 40.53 69.3 52.4 113.1 11.87 43.8 17.77 91.93 17.7 144.4 0 53-5.9 101.93-17.7 146.8Z"
    ></path>
    <path
      fill="url(#icon-logo-vertical_svg__A)"
      stroke="#9078BD"
      stroke-miterlimit="10"
      stroke-width="3"
      d="M2889.6 1934h-5.2l-501.5-559.1h-71.8v765.3h57.6v-604.3h4.5l542.9 622.4h29.7v-783.4h-56.2V1934Z"
    ></path>
    <path
      fill="url(#icon-logo-vertical_svg__B)"
      stroke="#9078BD"
      stroke-miterlimit="10"
      stroke-width="3"
      d="M3509.2 1357.5h-31.7l-369.1 782.7h64.7l120.8-255.3h327.7l117 255.3h130.6l-360-782.7Zm-192.6 477.6 142.8-302.5 139 302.5h-281.8Z"
    ></path>
    <defs>
      <linearGradient
        id="icon-logo-vertical_svg__a"
        x1="203.02"
        x2="203.02"
        y1="2455.92"
        y2="2263.79"
        gradientUnits="userSpaceOnUse"
      >
        <stop stop-color="#8A74AF"></stop>
        <stop offset="0.14" stop-color="#8E79B4"></stop>
        <stop offset="0.31" stop-color="#9B88C2"></stop>
        <stop offset="0.35" stop-color="#9F8DC6"></stop>
        <stop offset="0.4" stop-color="#9C88C4"></stop>
        <stop offset="0.58" stop-color="#937CBF"></stop>
        <stop offset="0.75" stop-color="#9078BD"></stop>
        <stop offset="0.84" stop-color="#8B74B8"></stop>
        <stop offset="0.94" stop-color="#7E69AA"></stop>
        <stop offset="1" stop-color="#74619F"></stop>
      </linearGradient>
      <linearGradient
        id="icon-logo-vertical_svg__b"
        x1="539.84"
        x2="539.84"
        y1="2460.3"
        y2="2260.86"
        gradientUnits="userSpaceOnUse"
      >
        <stop stop-color="#8A74AF"></stop>
        <stop offset="0.14" stop-color="#8E79B4"></stop>
        <stop offset="0.31" stop-color="#9B88C2"></stop>
        <stop offset="0.35" stop-color="#9F8DC6"></stop>
        <stop offset="0.4" stop-color="#9C88C4"></stop>
        <stop offset="0.58" stop-color="#937CBF"></stop>
        <stop offset="0.75" stop-color="#9078BD"></stop>
        <stop offset="0.84" stop-color="#8B74B8"></stop>
        <stop offset="0.94" stop-color="#7E69AA"></stop>
        <stop offset="1" stop-color="#74619F"></stop>
      </linearGradient>
      <linearGradient
        id="icon-logo-vertical_svg__c"
        x1="916.67"
        x2="916.67"
        y1="2455.92"
        y2="2263.79"
        gradientUnits="userSpaceOnUse"
      >
        <stop stop-color="#8A74AF"></stop>
        <stop offset="0.14" stop-color="#8E79B4"></stop>
        <stop offset="0.31" stop-color="#9B88C2"></stop>
        <stop offset="0.35" stop-color="#9F8DC6"></stop>
        <stop offset="0.4" stop-color="#9C88C4"></stop>
        <stop offset="0.58" stop-color="#937CBF"></stop>
        <stop offset="0.75" stop-color="#9078BD"></stop>
        <stop offset="0.84" stop-color="#8B74B8"></stop>
        <stop offset="0.94" stop-color="#7E69AA"></stop>
        <stop offset="1" stop-color="#74619F"></stop>
      </linearGradient>
      <linearGradient
        id="icon-logo-vertical_svg__d"
        x1="1280.06"
        x2="1280.06"
        y1="2455.92"
        y2="2263.79"
        gradientUnits="userSpaceOnUse"
      >
        <stop stop-color="#8A74AF"></stop>
        <stop offset="0.14" stop-color="#8E79B4"></stop>
        <stop offset="0.31" stop-color="#9B88C2"></stop>
        <stop offset="0.35" stop-color="#9F8DC6"></stop>
        <stop offset="0.4" stop-color="#9C88C4"></stop>
        <stop offset="0.58" stop-color="#937CBF"></stop>
        <stop offset="0.75" stop-color="#9078BD"></stop>
        <stop offset="0.84" stop-color="#8B74B8"></stop>
        <stop offset="0.94" stop-color="#7E69AA"></stop>
        <stop offset="1" stop-color="#74619F"></stop>
      </linearGradient>
      <linearGradient
        id="icon-logo-vertical_svg__e"
        x1="1644.92"
        x2="1644.92"
        y1="2455.92"
        y2="2263.79"
        gradientUnits="userSpaceOnUse"
      >
        <stop stop-color="#8A74AF"></stop>
        <stop offset="0.14" stop-color="#8E79B4"></stop>
        <stop offset="0.31" stop-color="#9B88C2"></stop>
        <stop offset="0.35" stop-color="#9F8DC6"></stop>
        <stop offset="0.4" stop-color="#9C88C4"></stop>
        <stop offset="0.58" stop-color="#937CBF"></stop>
        <stop offset="0.75" stop-color="#9078BD"></stop>
        <stop offset="0.84" stop-color="#8B74B8"></stop>
        <stop offset="0.94" stop-color="#7E69AA"></stop>
        <stop offset="1" stop-color="#74619F"></stop>
      </linearGradient>
      <linearGradient
        id="icon-logo-vertical_svg__f"
        x1="2018.96"
        x2="2018.96"
        y1="2455.92"
        y2="2263.79"
        gradientUnits="userSpaceOnUse"
      >
        <stop stop-color="#8A74AF"></stop>
        <stop offset="0.14" stop-color="#8E79B4"></stop>
        <stop offset="0.31" stop-color="#9B88C2"></stop>
        <stop offset="0.35" stop-color="#9F8DC6"></stop>
        <stop offset="0.4" stop-color="#9C88C4"></stop>
        <stop offset="0.58" stop-color="#937CBF"></stop>
        <stop offset="0.75" stop-color="#9078BD"></stop>
        <stop offset="0.84" stop-color="#8B74B8"></stop>
        <stop offset="0.94" stop-color="#7E69AA"></stop>
        <stop offset="1" stop-color="#74619F"></stop>
      </linearGradient>
      <linearGradient
        id="icon-logo-vertical_svg__g"
        x1="2401.48"
        x2="2401.48"
        y1="2457.67"
        y2="2261.74"
        gradientUnits="userSpaceOnUse"
      >
        <stop stop-color="#8A74AF"></stop>
        <stop offset="0.14" stop-color="#8E79B4"></stop>
        <stop offset="0.31" stop-color="#9B88C2"></stop>
        <stop offset="0.35" stop-color="#9F8DC6"></stop>
        <stop offset="0.4" stop-color="#9C88C4"></stop>
        <stop offset="0.58" stop-color="#937CBF"></stop>
        <stop offset="0.75" stop-color="#9078BD"></stop>
        <stop offset="0.84" stop-color="#8B74B8"></stop>
        <stop offset="0.94" stop-color="#7E69AA"></stop>
        <stop offset="1" stop-color="#74619F"></stop>
      </linearGradient>
      <linearGradient
        id="icon-logo-vertical_svg__h"
        x1="2779.62"
        x2="2779.62"
        y1="2455.92"
        y2="2263.79"
        gradientUnits="userSpaceOnUse"
      >
        <stop stop-color="#8A74AF"></stop>
        <stop offset="0.14" stop-color="#8E79B4"></stop>
        <stop offset="0.31" stop-color="#9B88C2"></stop>
        <stop offset="0.35" stop-color="#9F8DC6"></stop>
        <stop offset="0.4" stop-color="#9C88C4"></stop>
        <stop offset="0.58" stop-color="#937CBF"></stop>
        <stop offset="0.75" stop-color="#9078BD"></stop>
        <stop offset="0.84" stop-color="#8B74B8"></stop>
        <stop offset="0.94" stop-color="#7E69AA"></stop>
        <stop offset="1" stop-color="#74619F"></stop>
      </linearGradient>
      <linearGradient
        id="icon-logo-vertical_svg__i"
        x1="3101.99"
        x2="3101.99"
        y1="2455.92"
        y2="2263.79"
        gradientUnits="userSpaceOnUse"
      >
        <stop stop-color="#8A74AF"></stop>
        <stop offset="0.14" stop-color="#8E79B4"></stop>
        <stop offset="0.31" stop-color="#9B88C2"></stop>
        <stop offset="0.35" stop-color="#9F8DC6"></stop>
        <stop offset="0.4" stop-color="#9C88C4"></stop>
        <stop offset="0.58" stop-color="#937CBF"></stop>
        <stop offset="0.75" stop-color="#9078BD"></stop>
        <stop offset="0.84" stop-color="#8B74B8"></stop>
        <stop offset="0.94" stop-color="#7E69AA"></stop>
        <stop offset="1" stop-color="#74619F"></stop>
      </linearGradient>
      <linearGradient
        id="icon-logo-vertical_svg__j"
        x1="3434.72"
        x2="3434.72"
        y1="2460.3"
        y2="2263.79"
        gradientUnits="userSpaceOnUse"
      >
        <stop stop-color="#8A74AF"></stop>
        <stop offset="0.14" stop-color="#8E79B4"></stop>
        <stop offset="0.31" stop-color="#9B88C2"></stop>
        <stop offset="0.35" stop-color="#9F8DC6"></stop>
        <stop offset="0.4" stop-color="#9C88C4"></stop>
        <stop offset="0.58" stop-color="#937CBF"></stop>
        <stop offset="0.75" stop-color="#9078BD"></stop>
        <stop offset="0.84" stop-color="#8B74B8"></stop>
        <stop offset="0.94" stop-color="#7E69AA"></stop>
        <stop offset="1" stop-color="#74619F"></stop>
      </linearGradient>
      <linearGradient
        id="icon-logo-vertical_svg__k"
        x1="3809.93"
        x2="3809.93"
        y1="2455.92"
        y2="2263.79"
        gradientUnits="userSpaceOnUse"
      >
        <stop stop-color="#8A74AF"></stop>
        <stop offset="0.14" stop-color="#8E79B4"></stop>
        <stop offset="0.31" stop-color="#9B88C2"></stop>
        <stop offset="0.35" stop-color="#9F8DC6"></stop>
        <stop offset="0.4" stop-color="#9C88C4"></stop>
        <stop offset="0.58" stop-color="#937CBF"></stop>
        <stop offset="0.75" stop-color="#9078BD"></stop>
        <stop offset="0.84" stop-color="#8B74B8"></stop>
        <stop offset="0.94" stop-color="#7E69AA"></stop>
        <stop offset="1" stop-color="#74619F"></stop>
      </linearGradient>
      <linearGradient
        id="icon-logo-vertical_svg__l"
        x1="2204.94"
        x2="1896.67"
        y1="610.65"
        y2="806.6"
        gradientUnits="userSpaceOnUse"
      >
        <stop stop-color="#A2A4A7"></stop>
        <stop offset="0.64" stop-color="#9C9EA1"></stop>
        <stop offset="1" stop-color="#96989B"></stop>
      </linearGradient>
      <linearGradient
        id="icon-logo-vertical_svg__m"
        x1="1733.12"
        x2="2074.39"
        y1="701.3"
        y2="879.39"
        gradientUnits="userSpaceOnUse"
      >
        <stop stop-color="#96989B"></stop>
        <stop offset="0.05" stop-color="#97999C"></stop>
        <stop offset="1" stop-color="#A2A4A7"></stop>
      </linearGradient>
      <linearGradient
        id="icon-logo-vertical_svg__n"
        x1="1733.54"
        x2="2059.16"
        y1="714.71"
        y2="871.11"
        gradientUnits="userSpaceOnUse"
      >
        <stop offset="0.03" stop-color="#C7C8C9"></stop>
        <stop offset="0.22" stop-color="#C1C2C3"></stop>
        <stop offset="0.47" stop-color="#B0B2B4"></stop>
        <stop offset="0.71" stop-color="#9A9C9F"></stop>
      </linearGradient>
      <linearGradient
        id="icon-logo-vertical_svg__o"
        x1="1719.23"
        x2="2418.93"
        y1="537.78"
        y2="284.51"
        gradientUnits="userSpaceOnUse"
      >
        <stop stop-color="#96989B"></stop>
        <stop offset="0.05" stop-color="#97999C"></stop>
        <stop offset="1" stop-color="#A2A4A7"></stop>
      </linearGradient>
      <linearGradient
        id="icon-logo-vertical_svg__p"
        x1="2051.25"
        x2="2088.17"
        y1="677.71"
        y2="746.03"
        gradientUnits="userSpaceOnUse"
      >
        <stop offset="0.18" stop-color="#C7C8C9"></stop>
        <stop offset="0.41" stop-color="#C1C2C3"></stop>
        <stop offset="0.72" stop-color="#B0B2B4"></stop>
        <stop offset="1" stop-color="#9A9C9F"></stop>
      </linearGradient>
      <linearGradient
        id="icon-logo-vertical_svg__q"
        x1="1845.62"
        x2="2240.02"
        y1="838.67"
        y2="609.98"
        gradientUnits="userSpaceOnUse"
      >
        <stop offset="0.14" stop-color="#6567A6"></stop>
        <stop offset="0.26" stop-color="#665C9B"></stop>
        <stop offset="0.35" stop-color="#645795"></stop>
        <stop offset="0.47" stop-color="#5E4984"></stop>
        <stop offset="0.61" stop-color="#533168"></stop>
        <stop offset="0.67" stop-color="#4E255A"></stop>
        <stop offset="0.76" stop-color="#522A61"></stop>
        <stop offset="0.95" stop-color="#58336C"></stop>
      </linearGradient>
      <linearGradient
        id="icon-logo-vertical_svg__r"
        x1="1877.81"
        x2="2055.11"
        y1="309.336"
        y2="206.565"
        gradientUnits="userSpaceOnUse"
      >
        <stop stop-color="#97999C"></stop>
        <stop offset="0.41" stop-color="#A7A9AC"></stop>
        <stop offset="0.82" stop-color="#BCBDC0"></stop>
      </linearGradient>
      <linearGradient
        id="icon-logo-vertical_svg__s"
        x1="1891.92"
        x2="2046.07"
        y1="308.738"
        y2="219.392"
        gradientUnits="userSpaceOnUse"
      >
        <stop stop-color="#9A9C9F"></stop>
        <stop offset="0.27" stop-color="#B2B4B6"></stop>
        <stop offset="0.53" stop-color="#C2C3C4"></stop>
        <stop offset="0.74" stop-color="#C7C8C9"></stop>
      </linearGradient>
      <linearGradient
        id="icon-logo-vertical_svg__t"
        x1="1831.63"
        x2="1887.94"
        y1="1117.6"
        y2="525.38"
        gradientUnits="userSpaceOnUse"
      >
        <stop stop-color="#F9F9F9"></stop>
        <stop offset="0.19" stop-color="#ECECEC"></stop>
        <stop offset="0.46" stop-color="#ACACAD"></stop>
        <stop offset="0.57" stop-color="#BFBFC0"></stop>
        <stop offset="0.7" stop-color="#D1D2D2"></stop>
        <stop offset="0.85" stop-color="#DCDDDD"></stop>
        <stop offset="1" stop-color="#E0E1E1"></stop>
      </linearGradient>
      <linearGradient
        id="icon-logo-vertical_svg__u"
        x1="1675.05"
        x2="2273.51"
        y1="680.4"
        y2="231.38"
        gradientUnits="userSpaceOnUse"
      >
        <stop stop-color="#C4C5C7"></stop>
        <stop offset="0.74" stop-color="#C7C8C9"></stop>
      </linearGradient>
      <linearGradient
        id="icon-logo-vertical_svg__v"
        x1="1737.15"
        x2="2373.71"
        y1="551.97"
        y2="266.53"
        gradientUnits="userSpaceOnUse"
      >
        <stop stop-color="#8371B1"></stop>
        <stop offset="0.32" stop-color="#5D5493"></stop>
        <stop offset="0.4" stop-color="#5B4E8C"></stop>
        <stop offset="0.54" stop-color="#563D77"></stop>
        <stop offset="0.68" stop-color="#4E255A"></stop>
        <stop offset="0.77" stop-color="#522A61"></stop>
        <stop offset="0.95" stop-color="#58336C"></stop>
      </linearGradient>
      <linearGradient
        id="icon-logo-vertical_svg__w"
        x1="1965.53"
        x2="1967.32"
        y1="313.784"
        y2="206.004"
        gradientUnits="userSpaceOnUse"
      >
        <stop stop-color="#F9F9F9"></stop>
        <stop offset="0.08" stop-color="#E5E5E6"></stop>
        <stop offset="0.22" stop-color="#C6C6C7"></stop>
        <stop offset="0.35" stop-color="#B3B3B4"></stop>
        <stop offset="0.43" stop-color="#ACACAD"></stop>
        <stop offset="0.54" stop-color="#C1C1C2"></stop>
        <stop offset="0.73" stop-color="#E0E0E0"></stop>
        <stop offset="0.89" stop-color="#F2F2F2"></stop>
        <stop offset="1" stop-color="#F9F9F9"></stop>
      </linearGradient>
      <linearGradient
        id="icon-logo-vertical_svg__x"
        x1="440.18"
        x2="440.18"
        y1="2140.19"
        y2="1374.93"
        gradientUnits="userSpaceOnUse"
      >
        <stop stop-color="#8972AD"></stop>
        <stop offset="0.13" stop-color="#8D77B2"></stop>
        <stop offset="0.28" stop-color="#9986BF"></stop>
        <stop offset="0.35" stop-color="#A08FC7"></stop>
        <stop offset="0.42" stop-color="#9B88C4"></stop>
        <stop offset="0.58" stop-color="#937CBF"></stop>
        <stop offset="0.75" stop-color="#9078BD"></stop>
        <stop offset="0.82" stop-color="#8C74B8"></stop>
        <stop offset="0.91" stop-color="#7F6AAA"></stop>
        <stop offset="1" stop-color="#6C5A95"></stop>
      </linearGradient>
      <linearGradient
        id="icon-logo-vertical_svg__y"
        x1="930.29"
        x2="930.29"
        y1="2140.19"
        y2="1374.93"
        gradientUnits="userSpaceOnUse"
      >
        <stop stop-color="#8972AD"></stop>
        <stop offset="0.23" stop-color="#846EAB"></stop>
        <stop offset="0.35" stop-color="#7E6AA8"></stop>
        <stop offset="0.42" stop-color="#8570AF"></stop>
        <stop offset="0.58" stop-color="#907ABB"></stop>
        <stop offset="0.75" stop-color="#947EBF"></stop>
        <stop offset="0.83" stop-color="#8F7ABA"></stop>
        <stop offset="0.93" stop-color="#816DAC"></stop>
        <stop offset="1" stop-color="#73609F"></stop>
      </linearGradient>
      <linearGradient
        id="icon-logo-vertical_svg__z"
        x1="1658"
        x2="1658"
        y1="2158.29"
        y2="1357.48"
        gradientUnits="userSpaceOnUse"
      >
        <stop stop-color="#8972AD"></stop>
        <stop offset="0.23" stop-color="#846EAB"></stop>
        <stop offset="0.35" stop-color="#7E6AA8"></stop>
        <stop offset="0.42" stop-color="#8570AF"></stop>
        <stop offset="0.58" stop-color="#907ABB"></stop>
        <stop offset="0.75" stop-color="#947EBF"></stop>
        <stop offset="0.83" stop-color="#8F7ABA"></stop>
        <stop offset="0.93" stop-color="#816DAC"></stop>
        <stop offset="1" stop-color="#73609F"></stop>
      </linearGradient>
      <linearGradient
        id="icon-logo-vertical_svg__A"
        x1="2628.48"
        x2="2628.48"
        y1="2158.29"
        y2="1374.93"
        gradientUnits="userSpaceOnUse"
      >
        <stop stop-color="#8972AD"></stop>
        <stop offset="0.23" stop-color="#846EAB"></stop>
        <stop offset="0.35" stop-color="#7E6AA8"></stop>
        <stop offset="0.42" stop-color="#8570AF"></stop>
        <stop offset="0.58" stop-color="#907ABB"></stop>
        <stop offset="0.75" stop-color="#947EBF"></stop>
        <stop offset="0.83" stop-color="#8F7ABA"></stop>
        <stop offset="0.93" stop-color="#816DAC"></stop>
        <stop offset="1" stop-color="#73609F"></stop>
      </linearGradient>
      <linearGradient
        id="icon-logo-vertical_svg__B"
        x1="3488.81"
        x2="3488.81"
        y1="2140.19"
        y2="1357.48"
        gradientUnits="userSpaceOnUse"
      >
        <stop stop-color="#8972AD"></stop>
        <stop offset="0.23" stop-color="#846EAB"></stop>
        <stop offset="0.35" stop-color="#7E6AA8"></stop>
        <stop offset="0.42" stop-color="#8570AF"></stop>
        <stop offset="0.58" stop-color="#907ABB"></stop>
        <stop offset="0.75" stop-color="#947EBF"></stop>
        <stop offset="0.83" stop-color="#8F7ABA"></stop>
        <stop offset="0.93" stop-color="#816DAC"></stop>
        <stop offset="1" stop-color="#73609F"></stop>
      </linearGradient>
    </defs>
  </svg>