<svg width="119" height="24" viewBox="0 0 119 24" fill="none" xmlns="http://www.w3.org/2000/svg">
<path d="M27.629 7.59517C28.2766 7.59517 28.8378 8.11322 28.8378 8.80394V15.2795C28.8378 17.0495 28.4061 18.3878 27.4995 19.2943C26.5929 20.2009 25.2978 20.6758 23.6142 20.6758C22.7076 20.6758 21.8873 20.5463 21.1966 20.2441C20.8513 20.1146 20.5059 19.9419 20.2469 19.726C19.8152 19.4238 19.254 19.4238 18.7791 19.726C18.4769 19.9419 18.1747 20.1146 17.8293 20.2441C17.1386 20.5463 16.3184 20.6758 15.4118 20.6758C13.7282 20.6758 12.433 20.2009 11.5265 19.2943C10.6199 18.3878 10.145 17.0495 10.145 15.2795V8.76077C10.145 8.11322 10.6631 7.552 11.3538 7.552C12.0013 7.552 12.5626 8.07005 12.5626 8.76077V15.1931C12.5626 16.3587 12.8216 17.2222 13.2965 17.7402C13.7713 18.3014 14.5052 18.5604 15.4118 18.5604C17.3545 18.5604 18.3042 17.438 18.3042 15.1931V8.76077C18.3042 8.11322 18.8223 7.552 19.513 7.552C20.1605 7.552 20.7217 8.07005 20.7217 8.76077V15.1931C20.7217 17.438 21.6715 18.5604 23.6142 18.5604C25.5137 18.5604 26.4634 17.438 26.4634 15.1931V8.76077C26.4634 8.11322 26.9814 7.59517 27.629 7.59517Z" fill="#4080FF"/>
<path d="M32.9821 20.0283C32.205 19.5966 31.5575 18.9922 31.1258 18.2151C30.6941 17.4381 30.4351 16.0998 30.4351 15.1069C30.4351 14.1571 30.6509 13.7686 31.1258 12.9915C31.5575 12.2144 32.205 11.6532 32.9821 11.2215C33.7592 10.7898 34.6657 10.574 35.6587 10.574C36.6516 10.574 37.5582 10.7898 38.3784 11.2215C39.1555 11.6532 39.803 12.2576 40.2347 12.9915C40.6664 13.7686 40.9254 14.632 40.9254 15.5817C40.9254 16.5315 40.7096 17.4381 40.2347 18.172C39.803 18.949 39.1555 19.5534 38.3784 19.9851C37.6013 20.4168 36.6948 20.6327 35.6587 20.6327C34.6657 20.6758 33.7592 20.46 32.9821 20.0283ZM37.774 17.8266C38.3352 17.2654 38.5942 16.5315 38.5942 15.5817C38.5942 14.6752 38.3352 13.8981 37.774 13.3369C37.2128 12.7757 36.5221 12.4735 35.6587 12.4735C34.7953 12.4735 34.1045 12.7757 33.5865 13.3369C33.0253 13.8981 32.7663 14.632 32.7663 15.5817C32.7663 16.4883 33.0253 17.2654 33.5865 17.8266C34.1477 18.3878 34.8384 18.69 35.6587 18.69C36.5221 18.69 37.2128 18.3878 37.774 17.8266Z" fill="#4080FF"/>
<path d="M46.8828 11.0489C47.8325 10.6603 48.8686 11.3942 48.8686 12.3871V12.9052C48.6528 12.862 48.4801 12.862 48.3506 12.862C47.444 12.862 46.7533 13.121 46.2352 13.6391C45.7172 14.1571 45.4582 14.9342 45.4582 15.8839V19.5102C45.4582 20.1578 44.9401 20.6758 44.2926 20.6758C43.645 20.6758 43.127 20.1578 43.127 19.5102V11.9123C43.127 11.3079 43.6018 10.833 44.2062 10.833C44.8106 10.833 45.2855 11.3079 45.2855 11.9123V12.2576C45.7172 11.6964 46.2352 11.3079 46.8828 11.0489Z" fill="#4080FF"/>
<path d="M54.9125 16.4453L53.1857 18.0857V19.5535C53.1857 20.2011 52.6676 20.7191 52.0201 20.7191C51.3725 20.7191 50.8545 20.2011 50.8545 19.5535V8.15657C50.8545 7.50901 51.3725 6.99097 52.0201 6.99097C52.6676 6.99097 53.1857 7.50901 53.1857 8.15657V15.2365L57.6754 11.0921C57.8481 10.9195 58.1071 10.8331 58.3661 10.8331C59.2295 10.8331 59.7044 11.9124 59.0569 12.5168L56.6393 14.9775L59.7476 18.906C60.3088 19.6399 59.7907 20.676 58.8842 20.676C58.5388 20.676 58.2366 20.5464 58.0208 20.2443L54.9125 16.4453Z" fill="#4080FF"/>
<path d="M63.4604 20.3304C63.115 20.2441 62.8128 20.1146 62.5538 20.0282C62.0358 19.8124 61.8199 19.208 62.0789 18.69V18.6468C62.2948 18.1719 62.856 17.9992 63.3309 18.2151C63.5899 18.3014 63.8489 18.4309 64.1079 18.4741C64.7123 18.6468 65.3599 18.7331 65.9211 18.7331C67.3025 18.7331 67.9933 18.3878 67.9933 17.6539C67.9933 17.3085 67.8206 17.0495 67.4752 16.92C67.1299 16.7905 66.5686 16.6609 65.7916 16.5314C64.9713 16.4019 64.3238 16.2724 63.8057 16.0997C63.2877 15.9271 62.856 15.668 62.4675 15.2795C62.0789 14.891 61.9062 14.3297 61.9062 13.5959C61.9062 12.6461 62.2948 11.9122 63.0719 11.351C63.8489 10.7898 64.885 10.5308 66.2233 10.5308C66.914 10.5308 67.5616 10.6171 68.2523 10.7466C68.4681 10.7898 68.684 10.833 68.8567 10.9193C69.4179 11.092 69.7201 11.7395 69.4179 12.2576C69.202 12.6893 68.684 12.9051 68.2523 12.7324C67.6047 12.4734 66.914 12.3439 66.1801 12.3439C65.4894 12.3439 64.9713 12.4303 64.626 12.6461C64.2806 12.862 64.1079 13.121 64.1079 13.4663C64.1079 13.8549 64.2806 14.1139 64.6692 14.2434C65.0577 14.4161 65.6189 14.5456 66.396 14.6751C67.173 14.8046 67.8206 14.9341 68.3386 15.1068C68.8567 15.2795 69.2884 15.5385 69.6337 15.9271C69.9791 16.3156 70.195 16.8336 70.195 17.5675C70.195 18.4741 69.8064 19.208 68.9862 19.7692C68.2091 20.3304 67.0867 20.5894 65.7052 20.5894C65.0145 20.6758 64.2374 20.5463 63.4604 20.3304Z" fill="#4080FF"/>
<path d="M80.3397 11.1353C81.1168 11.5671 81.678 12.1283 82.1097 12.9053C82.5414 13.6824 82.7573 14.5458 82.7573 15.5387C82.7573 16.5316 82.5414 17.395 82.1097 18.1721C81.678 18.9492 81.0736 19.5536 80.3397 19.9421C79.5627 20.3738 78.7424 20.5896 77.7495 20.5896C76.4112 20.5896 75.3752 20.1579 74.5981 19.2514V22.9208C74.5981 23.5252 74.1232 24.0001 73.5188 24.0001H73.3893C72.7849 24.0001 72.3101 23.5252 72.3101 22.9208V11.6966C72.3101 11.0922 72.7849 10.6173 73.3893 10.6173C73.9937 10.6173 74.4686 11.0922 74.4686 11.6966V11.8692C74.8571 11.3944 75.332 11.049 75.8932 10.8332C76.4544 10.6173 77.0588 10.4878 77.7495 10.4878C78.7424 10.4878 79.6058 10.7036 80.3397 11.1353ZM79.6058 17.7404C80.1671 17.1792 80.4261 16.4453 80.4261 15.4955C80.4261 14.589 80.1671 13.8119 79.6058 13.2507C79.0446 12.6895 78.3539 12.3873 77.5337 12.3873C76.9725 12.3873 76.4976 12.5168 76.0227 12.7758C75.591 13.0348 75.2456 13.3802 74.9866 13.8551C74.7276 14.33 74.5981 14.848 74.5981 15.4955C74.5981 16.0999 74.7276 16.6611 74.9866 17.136C75.2456 17.6109 75.591 17.9563 76.0227 18.2153C76.4544 18.4743 76.9725 18.6038 77.5337 18.6038C78.3539 18.6038 79.0878 18.3016 79.6058 17.7404Z" fill="#4080FF"/>
<path d="M95.061 11.7827V19.4238C95.061 20.0282 94.5861 20.5031 93.9817 20.5031C93.3773 20.5031 92.9025 20.0282 92.9025 19.4238V19.2512C92.5139 19.726 92.0391 20.0714 91.4778 20.2873C90.9166 20.5031 90.3123 20.6326 89.6215 20.6326C88.6718 20.6326 87.8084 20.4168 87.0313 19.9851C86.2542 19.5534 85.693 18.9921 85.2613 18.2151C84.8296 17.438 84.6138 16.5746 84.6138 15.5817C84.6138 14.5888 84.8296 13.6822 85.2613 12.9483C85.693 12.1712 86.2542 11.61 87.0313 11.1783C87.8084 10.7466 88.6286 10.5308 89.6215 10.5308C90.2691 10.5308 90.8303 10.6603 91.3915 10.8761C91.9096 11.092 92.3844 11.4373 92.773 11.869V11.7827C92.773 11.1783 93.2478 10.7034 93.8522 10.7034H93.9817C94.5861 10.7034 95.061 11.1783 95.061 11.7827ZM91.9959 17.8265C92.5571 17.2653 92.8161 16.5314 92.8161 15.5817C92.8161 14.6751 92.5571 13.898 91.9959 13.3368C91.4347 12.7756 90.744 12.4734 89.8805 12.4734C89.0171 12.4734 88.3264 12.7756 87.8084 13.3368C87.2472 13.898 86.9881 14.6319 86.9881 15.5817C86.9881 16.4883 87.2472 17.2653 87.8084 17.8265C88.3696 18.3878 89.0603 18.69 89.8805 18.69C90.744 18.69 91.4347 18.3878 91.9959 17.8265Z" fill="#4080FF"/>
<path d="M99.9393 20.0283C99.1191 19.5966 98.5147 18.9922 98.0398 18.2152C97.565 17.4381 97.3491 16.5747 97.3491 15.6249C97.3491 14.6752 97.565 13.7686 98.0398 13.0347C98.5147 12.2577 99.1191 11.6964 99.9393 11.2647C100.76 10.833 101.666 10.6172 102.702 10.6172C103.652 10.6172 104.515 10.833 105.249 11.2216C105.595 11.3943 105.854 11.6101 106.113 11.8691C106.588 12.344 106.458 13.1642 105.897 13.5096C105.508 13.7255 104.99 13.6823 104.645 13.3369C104.472 13.1642 104.3 13.0347 104.084 12.9052C103.652 12.6894 103.177 12.5599 102.702 12.5599C101.839 12.5599 101.148 12.8189 100.544 13.3801C99.9825 13.9413 99.6803 14.6752 99.6803 15.6249C99.6803 16.5747 99.9393 17.3086 100.501 17.8698C101.062 18.431 101.796 18.69 102.659 18.69C103.177 18.69 103.609 18.5605 104.041 18.3447C104.256 18.2152 104.429 18.0857 104.602 17.913C104.947 17.5676 105.465 17.5244 105.854 17.7403C106.458 18.0857 106.544 18.9059 106.07 19.3808C105.811 19.6398 105.508 19.8556 105.163 20.0283C104.429 20.4169 103.609 20.6327 102.616 20.6327C101.666 20.6759 100.716 20.46 99.9393 20.0283Z" fill="#4080FF"/>
<path d="M116.733 18.3446C117.121 18.7763 117.035 19.467 116.517 19.8124C116.258 19.9851 115.955 20.1577 115.653 20.2441C114.963 20.5031 114.229 20.6326 113.365 20.6326C112.286 20.6326 111.336 20.4168 110.516 19.9851C109.696 19.5534 109.048 18.949 108.617 18.1719C108.185 17.3948 107.926 16.5314 107.926 15.5817C107.926 14.6319 108.142 13.7685 108.573 12.9915C109.005 12.2144 109.609 11.61 110.386 11.1783C111.164 10.7466 112.027 10.5308 112.977 10.5308C113.883 10.5308 114.747 10.7466 115.481 11.1351C116.214 11.5237 116.819 12.0849 117.294 12.862C117.725 13.5959 117.941 14.4593 117.941 15.4522L110.473 16.9631C110.689 17.5244 111.077 17.9561 111.595 18.2582C112.113 18.5604 112.718 18.69 113.452 18.69C114.229 18.69 114.919 18.5173 115.481 18.1287C115.912 17.8697 116.43 17.9992 116.733 18.3446ZM110.991 13.2505C110.473 13.8117 110.214 14.5456 110.214 15.4953L115.783 14.4161C115.61 13.8117 115.308 13.3368 114.833 12.9483C114.358 12.5598 113.754 12.3871 113.063 12.3871C112.2 12.4303 111.509 12.6893 110.991 13.2505Z" fill="#4080FF"/>
<path d="M3.32411 20.676C1.46779 20.676 0 19.165 0 17.3519V10.5741C0 8.71779 1.51096 7.25 3.32411 7.25C5.18044 7.25 6.64823 8.76096 6.64823 10.5741V17.3519C6.6914 19.2082 5.18044 20.676 3.32411 20.676Z" fill="#4080FF"/>
<path d="M3.36739 13.5959C1.81326 13.5959 0.604492 12.3439 0.604492 10.833C0.604492 9.27884 1.85643 8.07007 3.36739 8.07007C4.92152 8.07007 6.13029 9.32201 6.13029 10.833C6.13029 12.3439 4.92152 13.5959 3.36739 13.5959Z" fill="white"/>
<path d="M3.36739 5.5258C1.81326 5.5258 0.604492 4.27386 0.604492 2.7629C0.604492 1.20877 1.85643 0 3.36739 0C4.92152 0 6.13029 1.25194 6.13029 2.7629C6.13029 4.27386 4.92152 5.5258 3.36739 5.5258Z" fill="#4080FF"/>
</svg>
